<?xml version="1.0" encoding="UTF-8"?>
<svg xmlns="http://www.w3.org/2000/svg" xmlns:xlink="http://www.w3.org/1999/xlink" width="3600" height="3600" viewBox="0 0 3600 3600">
<path fill-rule="nonzero" fill="rgb(87.989807%, 95.991516%, 96.382141%)" fill-opacity="1" d="M 1418.859375 3115.136719 C 1271.449219 3115.136719 1271.609375 2866.761719 1418.859375 2866.761719 C 1566.339844 2866.761719 1566.089844 3115.136719 1418.859375 3115.136719 "/>
<path fill-rule="nonzero" fill="rgb(93.458557%, 72.612%, 49.000549%)" fill-opacity="1" d="M 2241.421875 2213.539062 C 1835.28125 2120.148438 1537.761719 1728.640625 1529.929688 1277.261719 C 1524.769531 979.910156 1636.089844 715.691406 1814.351562 528.609375 C 1937.78125 399.03125 1848.839844 175.179688 1679.160156 196.539062 C 1672.980469 197.351562 1666.71875 198.148438 1660.449219 199.039062 C 1031.109375 286.789062 508.601562 808.601562 378.507812 1482.828125 C 183.214844 2494.960938 887.765625 3422.335938 1838.410156 3404.640625 C 2471.960938 3392.898438 3041.78125 2933.070312 3239.660156 2277.160156 C 3241.609375 2270.671875 3243.550781 2264.128906 3245.449219 2257.578125 C 3296.679688 2080.390625 3111.28125 1943.21875 2971.019531 2050.699219 C 2768.46875 2205.851562 2508.910156 2275.039062 2241.421875 2213.539062 "/>
<path fill-rule="nonzero" fill="rgb(94.354248%, 85.734558%, 40.635681%)" fill-opacity="1" d="M 1692.769531 3248.375 C 1314.171875 3212.535156 968.214844 3002.832031 743.632812 2673.101562 C 515.941406 2338.839844 434.632812 1926.359375 514.675781 1511.570312 C 631.554688 905.921875 1109.148438 427.710938 1676.128906 348.671875 L 1693.148438 346.441406 L 1703.179688 346.171875 C 1720.28125 347.789062 1727.558594 362.941406 1730.339844 371.851562 C 1734.371094 384.339844 1735.441406 403.039062 1718.339844 420.960938 C 1501.398438 648.769531 1385.121094 954.679688 1390.808594 1282.429688 C 1399.820312 1800.371094 1744.578125 2254.03125 2210.511719 2361.148438 C 2253.75 2371.058594 2297.800781 2378.210938 2341.46875 2382.351562 C 2591.75 2406.039062 2843.421875 2331.871094 3050.171875 2173.480469 C 3059.851562 2166.039062 3069.351562 2162.851562 3079.171875 2163.78125 C 3091.488281 2164.949219 3103.71875 2172.640625 3110.320312 2183.351562 C 3113.910156 2189.261719 3117.449219 2198.089844 3112.71875 2214.460938 L 3107.828125 2231.058594 C 2929.210938 2823.164062 2407.269531 3243.195312 1838.21875 3253.785156 C 1789.570312 3254.707031 1740.640625 3252.90625 1692.769531 3248.375 "/>
<path fill-rule="nonzero" fill="rgb(87.135315%, 53.727722%, 41.346741%)" fill-opacity="1" d="M 988.652344 2349.199219 C 993.242188 2418.460938 945.121094 2479.480469 881.21875 2485.53125 C 817.300781 2491.589844 761.726562 2440.359375 757.1875 2371.089844 C 752.582031 2301.859375 800.703125 2240.800781 864.605469 2234.800781 C 928.523438 2228.75 984.058594 2279.96875 988.652344 2349.199219 "/>
<path fill-rule="nonzero" fill="rgb(87.135315%, 53.727722%, 41.346741%)" fill-opacity="1" d="M 1713.898438 2186.949219 C 1718.488281 2256.179688 1670.378906 2317.238281 1606.46875 2323.289062 C 1542.550781 2329.289062 1487.03125 2278.070312 1482.441406 2208.839844 C 1477.851562 2139.578125 1525.949219 2078.558594 1589.871094 2072.511719 C 1653.820312 2066.511719 1709.339844 2117.730469 1713.898438 2186.949219 "/>
<path fill-rule="nonzero" fill="rgb(39.651489%, 46.852112%, 30.953979%)" fill-opacity="1" d="M 1556.21875 2110.25 C 1555.601562 2149.53125 1525.78125 2181.339844 1489.558594 2181.320312 C 1453.320312 2181.308594 1424.410156 2149.398438 1424.980469 2110.179688 C 1425.609375 2070.851562 1455.429688 2039.03125 1491.601562 2039.050781 C 1527.871094 2039.078125 1556.761719 2070.910156 1556.21875 2110.25 "/>
<path fill-rule="nonzero" fill="rgb(39.651489%, 46.852112%, 30.953979%)" fill-opacity="1" d="M 1041.058594 2225.421875 C 1040.480469 2264.710938 1010.609375 2296.570312 974.4375 2296.550781 C 938.167969 2296.53125 909.289062 2264.628906 909.824219 2225.351562 C 910.445312 2186.070312 940.3125 2154.261719 976.535156 2154.28125 C 1012.71875 2154.25 1041.640625 2186.140625 1041.058594 2225.421875 "/>
<path fill-rule="nonzero" fill="rgb(39.651489%, 46.852112%, 30.953979%)" fill-opacity="1" d="M 1084.109375 2335.511719 C 1084.558594 2336.839844 1092.78125 2365.878906 1114.390625 2397.03125 C 1135.78125 2428.019531 1172.019531 2461.949219 1226.210938 2467.039062 C 1233.140625 2467.691406 1240.328125 2467.890625 1247.789062 2467.539062 C 1309.128906 2464.839844 1354.761719 2430.488281 1384.308594 2394.011719 C 1399.179688 2375.710938 1410.359375 2356.738281 1418.21875 2340.050781 C 1426.050781 2323.160156 1430.628906 2309.378906 1432.261719 2297.851562 C 1433.648438 2286.890625 1426.628906 2276.910156 1416.539062 2275.519531 C 1406.449219 2274.179688 1397.089844 2281.941406 1395.699219 2292.910156 C 1395.359375 2296.488281 1391.898438 2308.640625 1385.390625 2322.339844 C 1375.589844 2343.171875 1358.96875 2369.21875 1335.878906 2389.800781 C 1312.738281 2410.46875 1283.671875 2425.828125 1246.800781 2427.53125 C 1240.949219 2427.789062 1235.339844 2427.640625 1229.988281 2427.128906 C 1188.921875 2423.210938 1161.949219 2398.269531 1143.980469 2372.640625 C 1135.148438 2359.890625 1128.878906 2347.199219 1124.890625 2337.828125 C 1122.898438 2333.179688 1121.488281 2329.351562 1120.601562 2326.761719 L 1119.628906 2323.839844 L 1119.441406 2323.148438 C 1116.410156 2312.628906 1106.070312 2306.898438 1096.320312 2310.289062 C 1086.570312 2313.75 1081.128906 2325 1084.109375 2335.511719 "/>
</svg>
